<?xml version="1.0" encoding="UTF-8"?>
<svg id="Layer_1" data-name="Layer 1" xmlns="http://www.w3.org/2000/svg" viewBox="0 0 5197.9999 1001.1549">
  <defs>
    <style>
      .cls-1 {
        fill: #2a1077;
      }

      .cls-1, .cls-2, .cls-3 {
        stroke: #231f20;
        stroke-miterlimit: 10;
      }

      .cls-2 {
        fill: #411d7f;
      }

      .cls-3 {
        fill: #36177c;
      }
    </style>
  </defs>
  <polygon class="cls-3" points="1733.0113 516.212 867.0113 1000.582 1.0113 516.212 892.6713 .582 1733.0113 516.212"/>
  <polygon class="cls-1" points="867.0113 1000.582 1.0113 1000.582 1.0113 516.212 867.0113 1000.582"/>
  <polygon class="cls-1" points="892.6713 .582 1.0113 516.212 1.0113 .582 892.6713 .582"/>
  <polygon class="cls-3" points="4356.6715 .582 3465.0113 516.212 2624.6712 .582 4356.6715 .582"/>
  <polygon class="cls-3" points="4331.0113 1000.582 2599.0113 1000.582 3465.0113 516.212 4331.0113 1000.582"/>
  <polygon class="cls-1" points="3465.0113 516.212 2599.0113 1000.582 1733.0113 516.212 2624.6712 .582 3465.0113 516.212"/>
  <polygon class="cls-2" points="2599.0113 1000.582 867.0113 1000.582 1733.0113 516.212 2599.0113 1000.582"/>
  <polygon class="cls-2" points="2624.6712 .582 1733.0113 516.212 892.6713 .582 2624.6712 .582"/>
  <polygon class="cls-1" points="5197.0113 .582 5197.0113 516.212 4356.6715 .582 5197.0113 .582"/>
  <polygon class="cls-1" points="5197.0113 516.212 5197.0113 1000.582 4331.0113 1000.582 5197.0113 516.212"/>
  <polygon class="cls-2" points="5197.0113 516.212 4331.0113 1000.582 3465.0113 516.212 4356.6715 .582 5197.0113 516.212"/>
</svg>